<?xml version="1.0" standalone="no"?>
<!DOCTYPE svg PUBLIC "-//W3C//DTD SVG 20010904//EN"
 "http://www.w3.org/TR/2001/REC-SVG-20010904/DTD/svg10.dtd">
<svg version="1.0" xmlns="http://www.w3.org/2000/svg"
 width="512.000000pt" height="512.000000pt" viewBox="0 0 512.000000 512.000000"
 preserveAspectRatio="xMidYMid meet">

<g transform="translate(0.000000,512.000000) scale(0.100000,-0.100000)"
fill="#000000" stroke="none">
<path d="M1002 5104 c-21 -14 -22 -22 -22 -159 0 -185 -12 -175 205 -175 114
1 155 4 143 11 -16 9 -18 28 -18 159 0 122 3 151 16 164 14 15 1 16 -143 16
-127 0 -163 -3 -181 -16z"/>
<path d="M1356 3978 c-13 -19 -16 -59 -16 -233 0 -202 -1 -211 -21 -223 -31
-20 -62 -96 -53 -135 36 -170 284 -152 284 22 0 46 -28 104 -55 115 -13 4 -15
40 -15 221 0 202 -1 216 -20 235 -28 28 -84 27 -104 -2z"/>
<path d="M4370 2226 c0 -92 -29 -285 -60 -404 -157 -590 -598 -1059 -1176
-1251 -159 -53 -303 -81 -451 -88 l-123 -6 0 -236 0 -236 83 3 c1007 34 1875
732 2125 1707 39 152 60 290 69 444 l6 121 -236 0 -237 0 0 -54z"/>
</g>
</svg>
